<?xml version="1.0" standalone="no"?>
<!DOCTYPE svg PUBLIC "-//W3C//DTD SVG 20010904//EN"
 "http://www.w3.org/TR/2001/REC-SVG-20010904/DTD/svg10.dtd">
<svg version="1.0" xmlns="http://www.w3.org/2000/svg"
 width="612.000000pt" height="316.000000pt" viewBox="0 0 612.000000 316.000000"
 preserveAspectRatio="xMidYMid meet">

<g transform="translate(0.000000,316.000000) scale(0.100000,-0.100000)"
fill="#000000" stroke="none">
<path d="M1565 2759 c-28 -14 -55 -53 -270 -384 -110 -169 -189 -300 -190
-314 0 -17 9 -30 26 -40 24 -13 29 -13 51 1 14 9 51 55 83 102 l59 86 287 0
288 0 63 -92 c82 -121 133 -145 174 -83 14 21 14 27 -4 62 -27 52 -438 634
-464 656 -22 19 -71 21 -103 6z m148 -284 l97 -145 -200 0 -201 0 98 145 c54
79 101 144 104 145 3 0 49 -65 102 -145z"/>
<path d="M2655 2759 c-28 -14 -55 -53 -270 -384 -110 -169 -189 -300 -190
-314 0 -17 9 -30 26 -40 24 -13 29 -13 51 1 14 9 51 55 83 102 l59 86 287 0
288 0 63 -92 c82 -121 133 -145 174 -83 14 21 14 27 -4 62 -27 52 -438 634
-464 656 -22 19 -71 21 -103 6z m148 -284 l97 -145 -200 0 -201 0 98 145 c54
79 101 144 104 145 3 0 49 -65 102 -145z"/>
<path d="M212 2748 c-16 -16 -17 -563 -1 -605 16 -44 47 -71 108 -95 53 -21
74 -22 374 -26 342 -4 347 -3 347 47 0 53 3 52 -296 57 -295 5 -355 13 -391
46 -23 21 -23 24 -23 293 0 197 -3 274 -12 283 -7 7 -30 12 -53 12 -23 0 -46
-5 -53 -12z"/>
<path d="M3440 2746 c-62 -13 -119 -44 -138 -76 -20 -33 -32 -126 -23 -176 10
-52 39 -87 96 -117 34 -17 68 -21 235 -29 227 -10 312 -20 346 -42 20 -14 24
-24 24 -70 0 -96 -8 -98 -370 -106 -162 -4 -303 -10 -312 -14 -24 -11 -25 -81
-2 -90 26 -10 584 -7 647 4 73 12 125 37 151 72 15 22 21 48 24 115 3 80 2 91
-20 123 -27 40 -76 75 -127 91 -20 6 -137 14 -261 18 -201 6 -230 9 -260 27
-31 18 -35 25 -38 66 -2 37 1 50 19 67 27 25 99 41 185 41 78 0 104 12 104 46
0 58 -11 64 -123 63 -56 0 -127 -6 -157 -13z"/>
<path d="M5689 2253 c-13 -16 -12 -17 4 -4 16 13 21 21 13 21 -2 0 -10 -8 -17
-17z"/>
<path d="M5542 2067 c-265 -321 -640 -655 -1008 -897 -123 -81 -128 -85 -94
-72 133 52 199 88 286 155 350 268 616 535 903 905 18 23 30 42 27 42 -2 0
-54 -60 -114 -133z"/>
<path d="M1695 1670 c-226 -5 -242 -6 -276 -27 -59 -37 -64 -56 -64 -249 l0
-173 30 -31 c49 -51 101 -60 346 -60 236 0 248 3 235 55 l-6 25 -203 0 c-111
0 -219 5 -239 10 -66 19 -68 25 -68 183 0 78 4 147 8 154 15 24 67 33 200 34
75 1 175 4 222 7 83 7 85 8 88 34 2 18 -3 29 -15 35 -10 4 -126 6 -258 3z"/>
<path d="M2067 1668 c-16 -12 -17 -37 -15 -273 l3 -260 38 -3 c24 -2 39 1 42
10 3 7 8 99 12 204 l8 191 240 -204 c201 -170 245 -203 271 -203 17 0 37 6 43
14 8 9 11 88 9 267 l-3 254 -42 3 c-24 2 -44 2 -44 0 -1 -2 -4 -92 -8 -201
l-6 -199 -220 187 c-273 233 -287 243 -328 213z"/>
<path d="M3684 1670 c-92 -10 -105 -14 -139 -50 -23 -24 -30 -41 -33 -88 -3
-41 1 -68 11 -89 27 -52 70 -64 259 -74 94 -4 180 -11 192 -15 61 -19 78 -89
29 -121 -23 -16 -59 -19 -258 -23 l-230 -5 0 -35 0 -35 255 0 c239 0 257 1
295 21 49 25 69 75 61 148 -13 112 -57 133 -304 144 -202 8 -212 12 -212 74 0
35 3 40 35 54 19 7 51 14 72 14 21 0 55 3 76 6 33 6 37 10 37 36 0 16 -6 30
-12 32 -34 11 -69 12 -134 6z"/>
<path d="M2795 1657 c-3 -7 -4 -127 -3 -267 l3 -255 39 -3 c24 -2 42 2 47 10
5 7 9 50 9 96 0 45 2 82 4 82 3 0 107 -43 231 -96 175 -74 233 -95 263 -92 30
2 38 7 40 27 5 30 7 28 -168 102 -80 34 -149 65 -154 70 -6 5 37 9 100 9 129
0 191 17 229 62 22 26 25 39 25 103 0 64 -3 77 -26 104 -44 53 -94 61 -381 61
-196 0 -255 -3 -258 -13z m548 -86 c12 -9 17 -29 17 -66 0 -37 -5 -57 -17 -66
-12 -11 -68 -15 -235 -17 l-218 -3 0 86 0 86 218 -3 c167 -2 223 -6 235 -17z"/>
<path d="M4316 988 c-22 -11 -101 -44 -175 -73 -75 -29 -203 -84 -286 -123
-685 -319 -1430 -504 -2355 -584 -309 -27 -1068 -14 -1260 22 -27 5 -47 5 -51
-1 -8 -13 -31 -140 -26 -145 29 -30 906 -41 1187 -16 1137 102 2086 383 2888
856 72 43 132 80 132 82 0 8 -16 3 -54 -18z"/>
</g>
</svg>
